# File created by Blade
# Date/Time:  Tue Sep 28 14:35:47 2010
#---------------------------------------------------------
:version 1.10
:name HOM
:units
  mass 1.0
  length 1.000000
  angle deg
:documentation
     Acclaim Skeleton File
:root
   axis xyz
   order TX TY TZ RX RY RZ
   position 0.000000 0.000000 0.000000
   orientation 0 0 0
:bonedata
   begin
      id 1
      name LeftUpLeg_dum
      direction 1.000000 0.000000 0.000000
      length 3.677894
      axis 0.0 0.0 0.0 xyz
   end
   begin
      id 2
      name RightUpLeg_dum
      direction -1.000000 0.000000 0.000000
      length 3.677894
      axis 0.0 0.0 0.0 xyz
   end
   begin
      id 3
      name Spine_dum
      direction 0.000000 1.000000 0.000000
      length 0.039370
      axis 0.0 0.0 0.0 xyz
   end
   begin
      id 4
      name LeftUpLeg
      direction 0.000000 -1.000000 0.000000
      length 18.389491
      axis 0.0 0.0 0.0 xyz
      dof rx ry rz
   end
   begin
      id 5
      name LeftLeg
      direction 0.000000 -1.000000 0.000000
      length 16.918313
      axis 0.0 0.0 0.0 xyz
      dof rx ry rz
   end
   begin
      id 6
      name LeftFoot
      direction 0.000000 -0.258819 0.965926
      length 6.436326
      axis 15.0 0.0 0.0 xyz
      dof rx ry rz
   end
   begin
      id 7
      name LeftToeBase
      direction 0.000000 0.000000 1.000000
      length 2.952750
      axis 0.0 0.0 0.0 xyz
      dof rx ry rz
   end
   begin
      id 8
      name RightUpLeg
      direction 0.000000 -1.000000 0.000000
      length 18.389491
      axis 0.0 0.0 0.0 xyz
      dof rx ry rz
   end
   begin
      id 9
      name RightLeg
      direction 0.000000 -1.000000 0.000000
      length 16.918313
      axis 0.0 0.0 0.0 xyz
      dof rx ry rz
   end
   begin
      id 10
      name RightFoot
      direction 0.000000 -0.258819 0.965926
      length 6.436326
      axis 15.0 0.0 0.0 xyz
      dof rx ry rz
   end
   begin
      id 11
      name RightToeBase
      direction 0.000000 0.000000 1.000000
      length 2.952750
      axis 0.0 0.0 0.0 xyz
      dof rx ry rz
   end
   begin
      id 12
      name Spine
      direction 0.000000 1.000000 0.000000
      length 9.194745
      axis 0.0 0.0 0.0 xyz
      dof rx ry rz
   end
   begin
      id 13
      name Spine1
      direction 0.000000 1.000000 0.000000
      length 0.000000
      axis 0.0 0.0 0.0 xyz
      dof rx ry rz
   end
   begin
      id 14
      name Spine1_dum1
      direction 0.000000 1.000000 0.000000
      length 9.194745
      axis 0.0 0.0 0.0 xyz
   end
   begin
      id 15
      name Spine1_dum2
      direction 0.000000 1.000000 0.000000
      length 9.194745
      axis 0.0 0.0 0.0 xyz
   end
   begin
      id 16
      name Spine1_dum3
      direction 0.000000 1.000000 0.000000
      length 9.194745
      axis 0.0 0.0 0.0 xyz
   end
   begin
      id 17
      name Neck
      direction 0.000000 1.000000 0.000000
      length 4.229598
      axis 0.0 0.0 0.0 xyz
      dof rx ry rz
   end
   begin
      id 18
      name Head
      direction 0.000000 1.000000 0.000000
      length 4.527550
      axis 0.0 0.0 0.0 xyz
      dof rx ry rz
   end
   begin
      id 19
      name LeftShoulder
      direction 1.000000 -0.000004 0.000000
      length 5.516839
      axis 0.0 0.0 -90.0 xyz
      dof rx ry rz
   end
   begin
      id 20
      name LeftArm
      direction 1.000000 -0.000004 0.000000
      length 11.033679
      axis 0.0 0.0 -90.0 xyz
      dof rx ry rz
   end
   begin
      id 21
      name LeftForeArm
      direction 1.000000 -0.000004 0.000000
      length 10.114232
      axis 0.0 0.0 -90.0 xyz
      dof rx ry rz
   end
   begin
      id 22
      name LeftHand
      direction 0.000000 0.000000 0.000000
      length 0.000000
      axis 0.0 0.0 -90.0 xyz
      dof rx ry rz
   end
   begin
      id 23
      name LeftHand_dum1
      direction 0.000000 0.000000 0.000000
      length 0.000000
      axis 0.0 0.0 -90.0 xyz
   end
   begin
      id 24
      name LeftHand_dum2
      direction 1.000000 -0.000004 0.000000
      length 3.937000
      axis 0.0 0.0 -90.0 xyz
   end
   begin
      id 25
      name LeftHandThumb
      direction 0.000000 0.000000 1.000000
      length 3.937000
      axis 0.0 0.0 -90.0 xyz
      dof rx ry rz
   end
   begin
      id 26
      name RightShoulder
      direction -1.000000 -0.000004 0.000000
      length 5.516839
      axis 0.0 0.0 90.0 xyz
      dof rx ry rz
   end
   begin
      id 27
      name RightArm
      direction -1.000000 -0.000004 0.000000
      length 11.033679
      axis 0.0 0.0 90.0 xyz
      dof rx ry rz
   end
   begin
      id 28
      name RightForeArm
      direction -1.000000 -0.000004 0.000000
      length 10.114232
      axis 0.0 0.0 90.0 xyz
      dof rx ry rz
   end
   begin
      id 29
      name RightHand
      direction 0.000000 0.000000 0.000000
      length 0.000000
      axis 0.0 0.0 90.0 xyz
      dof rx ry rz
   end
   begin
      id 30
      name RightHand_dum1
      direction 0.000000 0.000000 0.000000
      length 0.000000
      axis 0.0 0.0 90.0 xyz
   end
   begin
      id 31
      name RightHand_dum2
      direction -1.000000 -0.000004 0.000000
      length 5.393690
      axis 0.0 0.0 90.0 xyz
   end
   begin
      id 32
      name RightHandThumb
      direction 0.000000 0.000000 1.000000
      length 3.937000
      axis 0.0 0.0 90.0 xyz
      dof rx ry rz
   end
:hierarchy
   begin
      root LeftUpLeg_dum RightUpLeg_dum Spine_dum
      LeftUpLeg_dum LeftUpLeg
      RightUpLeg_dum RightUpLeg
      Spine_dum Spine
      LeftUpLeg LeftLeg
      LeftLeg LeftFoot
      LeftFoot LeftToeBase
      RightUpLeg RightLeg
      RightLeg RightFoot
      RightFoot RightToeBase
      Spine Spine1
      Spine1 Spine1_dum1 Spine1_dum2 Spine1_dum3
      Spine1_dum1 Neck
      Spine1_dum2 LeftShoulder
      Spine1_dum3 RightShoulder
      Neck Head
      LeftShoulder LeftArm
      LeftArm LeftForeArm
      LeftForeArm LeftHand
      LeftHand LeftHand_dum1 LeftHand_dum2
      LeftHand_dum1 LeftHandThumb
      RightShoulder RightArm
      RightArm RightForeArm
      RightForeArm RightHand
      RightHand RightHand_dum1 RightHand_dum2
      RightHand_dum1 RightHandThumb
   end

# File created by Blade
# Date/Time:  Tue Sep 28 14:35:42 2010
# Frame Rate: 200.000 fps
#------------------------------------------------------
:FULLY-SPECIFIED
:DEGREES
442
root  -0.812748 37.501896 -32.985483 5.741595 1.012249 -8.066431
LeftUpLeg  -21.624243 10.523846 10.112597
LeftLeg  66.115144 -0.000000 -0.000000
LeftFoot  15.083520 8.258134 15.058870
LeftToeBase  -13.675066 0.000000 -0.000000
RightUpLeg  -15.554863 -27.566931 15.487834
RightLeg  17.127470 -0.000000 0.000000
RightFoot  0.510542 10.086631 -17.163040
RightToeBase  -10.238221 0.000000 -0.000000
Spine  -14.027268 -1.477381 6.509844
Spine1  14.184841 -2.783038 4.663071
Neck  9.891443 1.405597 -5.701565
Head  -10.489051 2.723999 1.785266
LeftShoulder  -8.205742 -7.950123 -28.707712
LeftArm  -3.427599 46.871848 -40.993475
LeftForeArm  26.899536 -0.000000 0.000000
LeftHand  3.455266 -3.797698 -0.074152
LeftHandThumb  0.000000 -0.000000 0.000000
RightShoulder  1.721254 7.888575 19.421916
RightArm  -1.150273 -40.229976 43.763161
RightForeArm  46.277352 -0.000000 0.000000
RightHand  9.588806 12.524251 -1.054702
RightHandThumb  0.000000 -0.000000 0.000000
443
root  -0.827995 37.514468 -32.811305 5.709021 0.874785 -7.954097
LeftUpLeg  -22.063925 10.745587 9.935769
LeftLeg  66.064414 -0.000000 -0.000000
LeftFoot  14.494507 8.578109 15.268749
LeftToeBase  -13.714557 0.000000 -0.000000
RightUpLeg  -15.141024 -27.127175 15.147240
RightLeg  17.114360 -0.000000 0.000000
RightFoot  0.375509 9.833224 -16.896279
RightToeBase  -9.980704 0.000000 -0.000000
Spine  -13.961793 -1.385869 6.456750
Spine1  14.217629 -2.681649 4.561544
Neck  9.826724 1.329410 -5.681616
Head  -10.462710 2.551301 1.810732
LeftShoulder  -8.233678 -7.990645 -28.673588
LeftArm  -3.389037 46.807014 -40.912402
LeftForeArm  27.020277 -0.000000 0.000000
LeftHand  3.555659 -4.211713 0.053968
LeftHandThumb  0.000000 -0.000000 0.000000
RightShoulder  1.766597 7.944976 19.442255
RightArm  -1.161375 -40.273366 43.807268
RightForeArm  46.402276 -0.000000 0.000000
RightHand  9.527829 12.495931 -1.132620
RightHandThumb  0.000000 -0.000000 0.000000
444
root  -0.847962 37.525945 -32.621986 5.703663 0.693999 -7.793803
LeftUpLeg  -22.480975 10.975388 9.736795
LeftLeg  65.942766 -0.000000 -0.000000
LeftFoot  13.911871 8.856936 15.195340
LeftToeBase  -13.779530 0.000000 -0.000000
RightUpLeg  -14.675313 -26.973060 14.818145
RightLeg  16.940209 -0.000000 0.000000
RightFoot  0.155256 9.820626 -16.809178
RightToeBase  -9.907482 0.000000 -0.000000
Spine  -13.939233 -1.265844 6.368512
Spine1  14.162324 -2.536999 4.413389
Neck  9.876234 1.429078 -5.620656
Head  -10.385196 2.626587 1.811968
LeftShoulder  -8.324016 -7.898004 -28.640480
LeftArm  -3.275927 46.671019 -40.723957
LeftForeArm  27.161186 -0.000000 0.000000
LeftHand  3.507995 -3.809764 -0.051792
LeftHandThumb  0.000000 -0.000000 0.000000
RightShoulder  1.784298 7.858049 19.463420
RightArm  -1.159749 -40.269251 43.883379
RightForeArm  46.513697 -0.000000 0.000000
RightHand  9.409475 12.496121 -1.147811
RightHandThumb  0.000000 -0.000000 0.000000
445
root  -0.861921 37.540043 -32.458124 5.675575 0.571044 -7.708812
LeftUpLeg  -22.898405 11.055381 9.574672
LeftLeg  65.730290 -0.000000 -0.000000
LeftFoot  13.327302 9.262009 15.177064
LeftToeBase  -13.963470 0.000000 -0.000000
RightUpLeg  -14.378672 -26.862311 14.601341
RightLeg  17.005178 -0.000000 0.000000
RightFoot  0.108772 9.728734 -16.848841
RightToeBase  -10.298321 0.000000 -0.000000
Spine  -13.860017 -1.190851 6.320690
Spine1  14.214949 -2.453476 4.336771
Neck  9.839988 1.436766 -5.595752
Head  -10.455563 2.583650 1.831168
LeftShoulder  -8.306330 -8.049453 -28.615758
LeftArm  -3.338684 46.820387 -40.725212
LeftForeArm  27.227347 -0.000000 0.000000
LeftHand  3.683109 -4.355137 0.449055
LeftHandThumb  0.000000 -0.000000 0.000000
RightShoulder  1.869157 8.068797 19.501094
RightArm  -1.243256 -40.458188 43.973176
RightForeArm  46.503312 -0.000000 0.000000
RightHand  9.509175 12.673250 -1.112611
RightHandThumb  0.000000 -0.000000 0.000000
446
root  -0.879154 37.548431 -32.264179 5.678580 0.382287 -7.533495
LeftUpLeg  -23.295276 11.279660 9.358140
LeftLeg  65.523568 -0.000000 -0.000000
LeftFoot  12.712261 9.550134 15.132431
LeftToeBase  -13.977194 0.000000 -0.000000
RightUpLeg  -13.946484 -27.013019 14.306207
RightLeg  16.844388 -0.000000 0.000000
RightFoot  -0.227189 9.937905 -16.998192
RightToeBase  -10.178461 0.000000 -0.000000
Spine  -13.857566 -1.062832 6.219823
Spine1  14.151524 -2.296465 4.185375
Neck  9.929376 1.399765 -5.523410
Head  -10.376388 2.585632 1.824524
LeftShoulder  -8.392638 -8.026879 -28.564434
LeftArm  -3.295544 46.784566 -40.589447
LeftForeArm  27.353784 -0.000000 0.000000
LeftHand  3.680420 -4.280046 0.341171
LeftHandThumb  0.000000 -0.000000 0.000000
RightShoulder  1.872936 7.889891 19.530037
RightArm  -1.184274 -40.366209 44.003470
RightForeArm  46.576924 -0.000000 0.000000
RightHand  9.427617 12.619436 -1.066077
RightHandThumb  0.000000 -0.000000 0.000000
447
root  -0.892504 37.560290 -32.105673 5.657098 0.261904 -7.446590
LeftUpLeg  -23.697349 11.372576 9.190018
LeftLeg  65.189847 -0.000000 -0.000000
LeftFoot  12.098052 10.009330 15.028773
LeftToeBase  -14.003065 0.000000 -0.000000
RightUpLeg  -13.656315 -26.891569 14.083572
RightLeg  16.892147 -0.000000 0.000000
RightFoot  -0.266560 9.892894 -16.946754
RightToeBase  -10.590504 0.000000 -0.000000
Spine  -13.770932 -0.988328 6.171033
Spine1  14.218805 -2.213647 4.109728
Neck  9.865945 1.426375 -5.494685
Head  -10.473226 2.558309 1.821606
LeftShoulder  -8.381093 -8.132912 -28.554204
LeftArm  -3.199768 46.630308 -40.494678
LeftForeArm  27.352100 -0.000000 0.000000
LeftHand  3.735482 -4.278068 0.433791
LeftHandThumb  0.000000 -0.000000 0.000000
RightShoulder  1.956803 8.092963 19.579968
RightArm  -1.245924 -40.528598 44.075923
RightForeArm  46.558684 -0.000000 0.000000
RightHand  9.527912 12.512782 -1.043835
RightHandThumb  0.000000 -0.000000 0.000000
448
root  -0.909842 37.566569 -31.906086 5.670109 0.088048 -7.260577
LeftUpLeg  -24.058311 11.598914 8.956570
LeftLeg  64.844393 -0.000000 -0.000000
LeftFoot  11.567709 10.270536 15.141618
LeftToeBase  -14.225351 0.000000 -0.000000
RightUpLeg  -13.214559 -27.041232 13.762125
RightLeg  16.721230 -0.000000 0.000000
RightFoot  -0.635192 10.124962 -17.043953
RightToeBase  -10.376779 0.000000 -0.000000
Spine  -13.785505 -0.865229 6.064442
Spine1  14.126871 -2.058267 3.957100
Neck  9.971814 1.405962 -5.455057
Head  -10.335941 2.535871 1.842256
LeftShoulder  -8.457139 -8.108061 -28.507610
LeftArm  -3.160744 46.586156 -40.375291
LeftForeArm  27.426151 -0.000000 0.000000
LeftHand  3.743922 -4.420591 0.395028
LeftHandThumb  0.000000 -0.000000 0.000000
RightShoulder  1.947699 7.909330 19.625275
RightArm  -1.202716 -40.508158 44.088061
RightForeArm  46.610347 -0.000000 0.000000
RightHand  9.425750 12.514418 -1.052897
RightHandThumb  0.000000 -0.000000 0.000000
449
root  -0.923199 37.577149 -31.740184 5.661152 -0.044304 -7.127341
LeftUpLeg  -24.433856 11.685955 8.747703
LeftLeg  64.404777 -0.000000 -0.000000
LeftFoot  11.058401 10.652861 15.107964
LeftToeBase  -14.377496 0.000000 -0.000000
RightUpLeg  -12.901713 -27.064094 13.500541
RightLeg  16.713142 -0.000000 0.000000
RightFoot  -0.753349 10.231331 -17.070671
RightToeBase  -10.688666 0.000000 -0.000000
Spine  -13.731275 -0.780301 5.983489
Spine1  14.186509 -1.954483 3.846111
Neck  9.960582 1.531993 -5.381138
Head  -10.473264 2.663077 1.817833
LeftShoulder  -8.458531 -8.189376 -28.474926
LeftArm  -3.038703 46.326025 -40.257927
LeftForeArm  27.461059 -0.000000 0.000000
LeftHand  3.744708 -4.865857 0.384493
LeftHandThumb  0.000000 -0.000000 0.000000
RightShoulder  2.011316 8.076555 19.698078
RightArm  -1.258373 -40.693878 44.144749
RightForeArm  46.575879 -0.000000 0.000000
RightHand  9.542228 12.683259 -0.938243
RightHandThumb  0.000000 -0.000000 0.000000
450
root  -0.935792 37.583303 -31.562094 5.660581 -0.177488 -6.975833
LeftUpLeg  -24.792989 11.782932 8.533853
LeftLeg  63.929058 -0.000000 -0.000000
LeftFoot  10.558123 10.982446 14.962250
LeftToeBase  -14.727315 0.000000 -0.000000
RightUpLeg  -12.545989 -27.089840 13.212435
RightLeg  16.656365 -0.000000 0.000000
RightFoot  -0.981247 10.317097 -17.087745
RightToeBase  -10.758102 0.000000 -0.000000
Spine  -13.706023 -0.696097 5.895873
Spine1  14.193807 -1.846906 3.727601
Neck  9.974020 1.273695 -5.362400
Head  -10.423025 2.392386 1.815176
LeftShoulder  -8.478521 -8.174667 -28.450569
LeftArm  -2.929305 46.101242 -40.133409
LeftForeArm  27.517013 -0.000000 0.000000
LeftHand  3.728537 -4.822125 0.407462
LeftHandThumb  0.000000 -0.000000 0.000000
RightShoulder  2.047033 8.083450 19.764414
RightArm  -1.244583 -40.771675 44.153006
RightForeArm  46.562257 -0.000000 0.000000
RightHand  9.552424 12.489824 -0.929417
RightHandThumb  0.000000 -0.000000 0.000000
451
root  -0.949360 37.588027 -31.386555 5.658988 -0.299131 -6.825110
LeftUpLeg  -25.152573 11.842028 8.317225
LeftLeg  63.411005 -0.000000 -0.000000
LeftFoot  10.089925 11.348919 14.846500
LeftToeBase  -14.573955 0.000000 -0.000000
RightUpLeg  -12.223287 -27.237309 12.940872
RightLeg  16.633910 -0.000000 0.000000
RightFoot  -1.208127 10.506436 -17.124291
RightToeBase  -10.927709 0.000000 -0.000000
Spine  -13.677699 -0.613356 5.801931
Spine1  14.203818 -1.738625 3.610133
Neck  9.969077 1.432644 -5.306207
Head  -10.428081 2.512656 1.819620
LeftShoulder  -8.479376 -8.225264 -28.425037
LeftArm  -2.891939 46.035356 -40.058840
LeftForeArm  27.551831 -0.000000 0.000000
LeftHand  3.682582 -4.754195 0.570802
LeftHandThumb  0.000000 -0.000000 0.000000
RightShoulder  2.082663 8.086440 19.833659
RightArm  -1.230720 -40.873143 44.155972
RightForeArm  46.548224 -0.000000 0.000000
RightHand  9.542735 12.377545 -0.900351
RightHandThumb  0.000000 -0.000000 0.000000
452
root  -0.960168 37.592206 -31.207290 5.654369 -0.404094 -6.677353
LeftUpLeg  -25.510614 11.832308 8.119845
LeftLeg  62.842163 -0.000000 -0.000000
LeftFoot  9.662657 11.710899 14.689857
LeftToeBase  -14.863741 0.000000 -0.000000
RightUpLeg  -11.884118 -27.339036 12.660722
RightLeg  16.610872 -0.000000 0.000000
RightFoot  -1.473680 10.624660 -17.172228
RightToeBase  -11.013020 0.000000 -0.000000
Spine  -13.658476 -0.534567 5.714828
Spine1  14.217486 -1.636321 3.503359
Neck  9.981376 1.507627 -5.279931
Head  -10.440718 2.547719 1.816268
LeftShoulder  -8.493287 -8.220460 -28.403652
LeftArm  -2.729733 45.691340 -39.896685
LeftForeArm  27.585819 -0.000000 0.000000
LeftHand  3.692258 -4.815766 0.387958
LeftHandThumb  0.000000 -0.000000 0.000000
RightShoulder  2.113723 8.104185 19.906268
RightArm  -1.239205 -41.010914 44.162804
RightForeArm  46.545947 -0.000000 0.000000
RightHand  9.601026 12.427517 -0.900058
RightHandThumb  0.000000 -0.000000 0.000000
453
root  -0.972246 37.594626 -31.038221 5.659660 -0.508356 -6.530605
LeftUpLeg  -25.861310 11.940520 7.880059
LeftLeg  62.217278 -0.000000 -0.000000
LeftFoot  9.423587 12.041688 14.625360
LeftToeBase  -14.918073 0.000000 -0.000000
RightUpLeg  -11.568885 -27.501591 12.392561
RightLeg  16.575495 -0.000000 0.000000
RightFoot  -1.718550 10.812447 -17.227781
RightToeBase  -11.007478 0.000000 -0.000000
Spine  -13.623131 -0.464135 5.621206
Spine1  14.258093 -1.540906 3.396338
Neck  9.953241 1.445313 -5.248616
Head  -10.442013 2.457067 1.794516
LeftShoulder  -8.462423 -8.325855 -28.377772
LeftArm  -2.682474 45.540234 -39.833509
LeftForeArm  27.600932 -0.000000 0.000000
LeftHand  3.743885 -5.172498 0.355913
LeftHandThumb  0.000000 -0.000000 0.000000
RightShoulder  2.147216 8.117762 19.977762
RightArm  -1.197424 -41.092150 44.124357
RightForeArm  46.532497 -0.000000 0.000000
RightHand  9.504584 12.326039 -0.827580
RightHandThumb  0.000000 -0.000000 0.000000
